<svg xmlns="http://www.w3.org/2000/svg" viewBox="0 0 800 600" role="img" aria-labelledby="title desc">
  <title id="title">Miniatura de cráneo fósil de referencia</title>
  <desc id="desc">Ilustración abstracta en tonos tierra para un cráneo fósil.</desc>
  <rect width="800" height="600" fill="#ede7dc"/>
  <circle cx="580" cy="120" r="180" fill="#d8c7ad" opacity="0.55"/>
  <path d="M176 364c-28-98 47-188 158-204 123-18 258 45 287 137 22 70-25 132-109 148-46 9-82-10-132-2-54 9-84 43-129 28-35-12-62-61-75-107Z" fill="#8f7356"/>
  <path d="M255 326c18-34 73-43 111-18 33 22 33 63-2 78-44 19-128-15-109-60Z" fill="#f8f4ec" opacity="0.92"/>
  <path d="M447 302c31-29 92-22 119 9 23 27 5 62-35 68-51 8-124-39-84-77Z" fill="#f8f4ec" opacity="0.88"/>
  <path d="M354 427c48-16 102-14 152 1" fill="none" stroke="#5f4a39" stroke-width="18" stroke-linecap="round"/>
  <path d="M146 492h508" stroke="#cbbba3" stroke-width="18" stroke-linecap="round"/>
</svg>
